<svg width="14" height="10" viewBox="0 0 14 10" fill="none" xmlns="http://www.w3.org/2000/svg">
<path d="M8 6V7.33333H10V9.33333H11.3333V7.33333H13.3333V6H11.3333V4H10V6H8ZM7.98 3.74C7.9 2.85333 7.06 1.98 6 2C4.86667 2.02 4 2.86667 4 4C4 5.13333 4.86667 5.96 6 6C6.25333 6 6.51333 5.94667 6.76 5.84667C6.94 5.11333 7.24 4.42 7.98 3.74ZM6.66667 6.66667H2.66667C2.66667 5.93333 2.07333 5.33333 1.33333 5.33333V2.66667C2.07333 2.66667 2.66667 2.07333 2.66667 1.33333H9.33333C9.33333 2.07333 9.93333 2.66667 10.6667 2.66667V2.70667C11.1133 2.70667 11.56 2.78667 12 2.93333V0H0V8H6.88C6.73333 7.55333 6.66667 7.10667 6.66667 6.66667Z" fill="#0A6A34"/>
</svg>
