<svg width="13" height="13" viewBox="0 0 13 13" fill="none" xmlns="http://www.w3.org/2000/svg">
<path d="M9.33333 12.5L7.5 10.5L8.27333 9.72667L9.33333 10.7867L11.7267 8.39333L12.5 9.33333L9.33333 12.5ZM6.53333 12.5H1.33333C0.593333 12.5 0 11.9 0 11.1667V1.83333C0 1.09333 0.593333 0.5 1.33333 0.5H10.6667C11.0203 0.5 11.3594 0.640476 11.6095 0.890524C11.8595 1.14057 12 1.47971 12 1.83333V7.03333C11.4133 6.69333 10.7267 6.5 10 6.5L9.33333 6.55333V5.83333H2.66667V7.16667H7.79333C6.71333 7.88 6 9.10667 6 10.5C6 11.2267 6.19333 11.9133 6.53333 12.5ZM6 8.5H2.66667V9.83333H6V8.5ZM9.33333 3.16667H2.66667V4.5H9.33333" fill="#0A6A34"/>
</svg>
