<svg width="13" height="13" viewBox="0 0 13 13" fill="none" xmlns="http://www.w3.org/2000/svg">
<path d="M7.64 9.08667L8.58667 8.14L10 9.56L11.4133 8.14L12.36 9.08667L10.94 10.5L12.36 11.9133L11.4133 12.86L10 11.44L8.58667 12.86L7.64 11.9133L9.06 10.5L7.64 9.08667ZM1.33333 0.5H10.6667C11.4067 0.5 12 1.09333 12 1.83333V7.03333C11.5933 6.8 11.1467 6.63333 10.6667 6.55333V1.83333H1.33333V11.1667H6.05333C6.13333 11.6467 6.3 12.0933 6.53333 12.5H1.33333C0.593333 12.5 0 11.9067 0 11.1667V1.83333C0 1.09333 0.593333 0.5 1.33333 0.5ZM2.66667 3.16667H9.33333V4.5H2.66667V3.16667ZM2.66667 5.83333H9.33333V6.55333C8.76667 6.64667 8.24667 6.86 7.78667 7.16667H2.66667V5.83333ZM2.66667 8.5H6V9.83333H2.66667V8.5Z" fill="#D34528"/>
</svg>
